<svg width="690" height="690" viewBox="0 0 690 690" fill="none" xmlns="http://www.w3.org/2000/svg">
<g clip-path="url(#clip0_22_51)">
<path d="M340.034 42.2404L355.153 42.7658L353.165 99.9755C353.019 104.187 352.072 107.565 350.326 110.11C348.579 112.655 346.135 114.477 342.993 115.576C339.876 116.676 336.176 117.152 331.893 117.003C331.373 116.985 330.876 116.956 330.404 116.915C329.907 116.898 329.387 116.868 328.844 116.826L329.254 105.008C329.656 105.045 330.01 105.069 330.318 105.08C330.601 105.114 330.908 105.136 331.239 105.148C333.676 105.232 335.398 104.771 336.404 103.764C337.433 102.781 337.983 101.26 338.055 99.2018L340.034 42.2404ZM347.802 35.4748C345.578 35.3975 343.688 34.5857 342.131 33.0392C340.574 31.469 339.833 29.6311 339.906 27.5254C339.978 25.4433 340.845 23.6849 342.506 22.2502C344.167 20.7919 346.11 20.1014 348.334 20.1787C350.605 20.2576 352.507 21.0817 354.04 22.651C355.597 24.1975 356.339 26.0118 356.267 28.0939C356.194 30.1996 355.326 31.9817 353.665 33.44C352.028 34.8755 350.074 35.5538 347.802 35.4748Z" fill="#2F2F2F"/>
<path d="M378.607 101.799C373.166 100.891 368.654 98.9488 365.071 95.974C361.514 92.9797 359.009 89.2249 357.555 84.7097C356.105 80.171 355.841 75.1463 356.761 69.6356C357.689 64.0781 359.575 59.4006 362.417 55.603C365.264 51.7821 368.853 49.0454 373.186 47.3928C377.545 45.7209 382.446 45.3393 387.886 46.2482C393.327 47.157 397.826 49.1085 401.382 52.1028C404.965 55.0776 407.482 58.8344 408.932 63.373C410.386 67.8883 410.649 72.9246 409.72 78.4821C408.8 83.9929 406.916 88.6587 404.07 92.4796C401.227 96.2772 397.626 99.012 393.267 100.684C388.934 102.336 384.048 102.708 378.607 101.799ZM380.608 90.2526C383.083 90.666 385.266 90.3107 387.158 89.1866C389.054 88.0392 390.627 86.3097 391.877 83.9983C393.151 81.6908 394.049 78.9726 394.572 75.8436C395.094 72.7146 395.129 69.852 394.674 67.2559C394.243 64.6636 393.318 62.5168 391.898 60.8155C390.478 59.1142 388.53 58.0568 386.055 57.6433C383.556 57.226 381.336 57.5871 379.393 58.7267C377.474 59.8703 375.878 61.5958 374.604 63.9033C373.354 66.2147 372.468 68.9349 371.945 72.0639C371.422 75.1929 371.376 78.0535 371.807 80.6458C372.262 83.2419 373.211 85.3926 374.654 87.0978C376.125 88.7836 378.109 89.8352 380.608 90.2526Z" fill="#2F2F2F"/>
<path d="M427.104 80.8679L416.026 110.392L401.862 105.077L421.024 54.0087L434.523 59.0737L431.142 68.0839L431.741 68.3085C433.986 65.7625 436.762 64.1241 440.071 63.3932C443.388 62.6402 446.941 62.9748 450.732 64.397C454.278 65.7277 457.079 67.6637 459.134 70.2049C461.19 72.7462 462.409 75.7321 462.79 79.1625C463.18 82.5707 462.631 86.2586 461.142 90.2262L448.941 122.743L434.778 117.428L446.03 87.4385C447.225 84.3215 447.342 81.5839 446.381 79.2258C445.428 76.8454 443.534 75.1229 440.696 74.0584C438.79 73.3431 436.952 73.1211 435.181 73.3923C433.433 73.6718 431.853 74.4446 430.442 75.7106C429.062 76.9627 427.95 78.6818 427.104 80.8679Z" fill="#2F2F2F"/>
<path d="M520.989 124.323L509.101 117.167C509.578 116.058 509.763 114.892 509.657 113.669C509.564 112.426 509.153 111.208 508.423 110.015C507.725 108.816 506.655 107.719 505.212 106.725C503.282 105.395 501.373 104.683 499.483 104.589C497.606 104.475 496.205 105.09 495.278 106.435C494.539 107.508 494.344 108.71 494.691 110.041C495.038 111.373 496.1 112.982 497.877 114.867L504.879 122.106C508.628 126.012 510.889 129.697 511.664 133.163C512.438 136.629 511.71 139.981 509.481 143.217C507.452 146.16 504.805 148.146 501.539 149.173C498.292 150.213 494.738 150.323 490.876 149.502C487.047 148.675 483.183 146.919 479.284 144.232C473.338 140.135 469.454 135.634 467.631 130.726C465.841 125.813 466.122 121.004 468.472 116.299L481.168 124.098C480.289 126.166 480.232 128.168 480.997 130.104C481.776 132.02 483.276 133.744 485.499 135.275C487.682 136.779 489.725 137.569 491.629 137.644C493.565 137.713 495.006 137.082 495.952 135.75C496.712 134.606 496.872 133.351 496.434 131.985C496.008 130.599 494.955 129.04 493.274 127.307L486.564 120.398C482.782 116.498 480.564 112.728 479.91 109.086C479.276 105.458 480.115 101.968 482.425 98.6145C484.413 95.7293 486.905 93.781 489.902 92.7696C492.918 91.7716 496.239 91.6878 499.864 92.5181C503.509 93.3619 507.252 95.1069 511.092 97.753C516.765 101.662 520.404 105.937 522.007 110.578C523.63 115.232 523.291 119.814 520.989 124.323Z" fill="#2F2F2F"/>
<path d="M538.303 163.984L560.451 141.837L571.148 152.534L532.578 191.103L522.308 180.833L529.314 173.827L528.912 173.426C525.782 174.815 522.517 175.183 519.119 174.531C515.738 173.894 512.599 172.128 509.703 169.232C507.125 166.654 505.442 163.8 504.656 160.67C503.869 157.539 504.003 154.342 505.057 151.078C506.129 147.83 508.163 144.691 511.159 141.661L535.717 117.103L546.414 127.8L523.765 150.45C521.505 152.743 520.316 155.154 520.199 157.682C520.082 160.209 521.036 162.486 523.062 164.512C524.351 165.801 525.849 166.713 527.556 167.249C529.281 167.768 531.072 167.784 532.93 167.299C534.805 166.83 536.596 165.725 538.303 163.984Z" fill="#2F2F2F"/>
<path d="M566.07 185.847L539.908 203.452L531.462 190.902L576.716 160.449L584.765 172.411L576.781 177.784L577.138 178.314C580.444 177.545 583.656 177.823 586.774 179.149C589.912 180.462 592.611 182.797 594.871 186.156C596.985 189.299 598.142 192.501 598.34 195.764C598.538 199.026 597.796 202.165 596.115 205.179C594.454 208.181 591.865 210.864 588.349 213.23L559.536 232.62L551.09 220.069L577.664 202.186C580.447 200.342 582.132 198.181 582.719 195.703C583.325 193.212 582.782 190.709 581.091 188.195C579.954 186.506 578.586 185.258 576.987 184.451C575.401 183.663 573.667 183.375 571.783 183.587C569.932 183.805 568.028 184.558 566.07 185.847Z" fill="#2F2F2F"/>
<path d="M565.276 250.803C563.677 246.981 563.211 243.108 563.878 239.184C564.576 235.273 566.468 231.607 569.553 228.186C572.669 224.777 577.033 221.898 582.645 219.549C588.411 217.136 593.593 216.058 598.191 216.314C602.812 216.562 606.717 217.827 609.905 220.111C613.125 222.408 615.508 225.402 617.052 229.092C618.232 231.91 618.734 234.458 618.559 236.739C618.415 239.032 617.876 241.054 616.941 242.805C616.037 244.57 615.036 246.041 613.938 247.219L614.116 247.645L639.339 237.087L645.166 251.009L578.079 279.09L572.32 265.332L580.379 261.959L580.132 261.369C578.46 261.299 576.685 260.951 574.806 260.326C572.959 259.714 571.189 258.645 569.499 257.12C567.817 255.616 566.41 253.511 565.276 250.803ZM578.232 250.577C579.174 252.826 580.58 254.47 582.452 255.509C584.355 256.56 586.594 257.035 589.169 256.932C591.753 256.851 594.541 256.185 597.533 254.933C600.525 253.68 602.95 252.178 604.808 250.425C606.666 248.671 607.867 246.757 608.41 244.682C608.953 242.607 608.754 240.445 607.812 238.196C606.852 235.902 605.421 234.23 603.518 233.179C601.615 232.128 599.392 231.66 596.848 231.775C594.304 231.89 591.58 232.555 588.675 233.771C585.749 234.996 583.33 236.483 581.419 238.233C579.539 239.995 578.29 241.916 577.672 243.997C577.086 246.091 577.272 248.284 578.232 250.577Z" fill="#2F2F2F"/>
<path d="M580.889 303.013C579.754 297.518 579.89 292.559 581.296 288.134C582.731 283.728 585.28 280.035 588.943 277.054C592.629 274.068 597.289 271.993 602.923 270.829C608.417 269.694 613.46 269.764 618.051 271.04C622.642 272.315 626.496 274.649 629.615 278.042C632.738 281.458 634.841 285.786 635.923 291.026C636.651 294.55 636.761 297.948 636.253 301.219C635.772 304.51 634.642 307.523 632.863 310.26C631.088 313.02 628.629 315.39 625.484 317.369C622.362 319.343 618.53 320.8 613.985 321.739L609.917 322.58L600.597 277.474L609.778 275.577L616.216 306.737C618.349 306.297 620.143 305.443 621.597 304.175C623.052 302.908 624.073 301.355 624.66 299.517C625.275 297.698 625.36 295.71 624.915 293.554C624.45 291.305 623.516 289.419 622.114 287.896C620.739 286.391 619.082 285.331 617.142 284.717C615.225 284.097 613.209 283.994 611.095 284.407L602.366 286.21C599.723 286.757 597.54 287.715 595.816 289.087C594.098 290.481 592.904 292.19 592.234 294.214C591.565 296.238 591.486 298.491 591.999 300.971C592.339 302.618 592.882 304.077 593.628 305.349C594.375 306.621 595.312 307.648 596.441 308.43C597.569 309.212 598.859 309.719 600.309 309.952L602.236 323.84C598.8 323.825 595.63 322.993 592.727 321.345C589.852 319.715 587.381 317.349 585.314 314.246C583.274 311.163 581.8 307.418 580.889 303.013Z" fill="#2F2F2F"/>
<path d="M658.793 335.586L586.283 341.191L585.117 326.108L657.628 320.503L658.793 335.586Z" fill="#2F2F2F"/>
<path d="M584.426 367.86C584.745 362.353 586.191 357.659 588.763 353.777C591.358 349.919 594.822 347.025 599.155 345.095C603.512 343.165 608.479 342.362 614.057 342.686C619.682 343.011 624.535 344.383 628.616 346.802C632.72 349.221 635.827 352.496 637.935 356.626C640.066 360.78 640.972 365.611 640.652 371.118C640.333 376.625 638.876 381.307 636.281 385.164C633.709 389.047 630.244 391.952 625.888 393.882C621.555 395.812 616.576 396.615 610.951 396.289C605.373 395.966 600.532 394.594 596.427 392.175C592.346 389.757 589.24 386.47 587.11 382.315C585.001 378.185 584.107 373.367 584.426 367.86ZM596.121 368.609C595.976 371.114 596.563 373.247 597.884 375.007C599.229 376.769 601.117 378.147 603.549 379.142C605.98 380.16 608.779 380.761 611.946 380.944C615.114 381.128 617.963 380.854 620.496 380.123C623.026 379.416 625.061 378.266 626.6 376.671C628.139 375.077 628.981 373.027 629.126 370.521C629.273 367.993 628.675 365.824 627.334 364.015C625.991 362.23 624.103 360.828 621.673 359.81C619.24 358.815 616.44 358.226 613.273 358.042C610.106 357.859 607.257 358.121 604.727 358.828C602.194 359.558 600.158 360.733 598.618 362.351C597.1 363.994 596.267 366.08 596.121 368.609ZM648.015 360.696C648.133 358.663 648.943 356.955 650.446 355.572C651.973 354.19 653.717 353.556 655.678 353.67C657.687 353.786 659.347 354.617 660.656 356.164C661.966 357.71 662.562 359.499 662.444 361.532C662.325 363.588 661.527 365.285 660.05 366.622C658.572 367.983 656.829 368.605 654.82 368.489C652.858 368.375 651.198 367.555 649.84 366.03C648.504 364.53 647.896 362.752 648.015 360.696ZM646.758 382.392C646.875 380.36 647.686 378.652 649.189 377.269C650.715 375.887 652.46 375.253 654.421 375.366C656.43 375.483 658.089 376.314 659.399 377.86C660.708 379.406 661.304 381.196 661.187 383.228C661.067 385.284 660.27 386.981 658.793 388.318C657.315 389.679 655.572 390.302 653.563 390.185C651.601 390.072 649.941 389.252 648.583 387.727C647.247 386.227 646.639 384.448 646.758 382.392Z" fill="#2F2F2F"/>
<path d="M629.931 432.576L618.812 430.234L625.749 397.292L636.869 399.634L629.931 432.576ZM581.906 395.934L639.138 407.987C643.007 408.801 646.057 410.23 648.288 412.272C650.514 414.338 651.986 416.826 652.704 419.735C653.422 422.644 653.427 425.778 652.72 429.137C652.242 431.408 651.631 433.444 650.889 435.248C650.141 437.074 649.531 438.421 649.058 439.289L638.494 434.307C638.802 433.767 639.127 433.085 639.469 432.262C639.807 431.462 640.069 430.622 640.254 429.742C640.713 427.564 640.522 425.939 639.684 424.868C638.868 423.801 637.557 423.077 635.75 422.696L578.796 410.702L581.906 395.934Z" fill="#2F2F2F"/>
<path d="M591.796 479.537L580.724 474.902L593.53 444.307L604.602 448.941L591.796 479.537Z" fill="#2F2F2F"/>
<path d="M595.224 510.171L587.103 522.934L538.806 492.205C535.251 489.943 532.819 487.413 531.512 484.617C530.204 481.821 529.874 478.791 530.52 475.526C531.153 472.281 532.62 468.851 534.92 465.236C535.2 464.796 535.477 464.383 535.751 463.997C536.018 463.577 536.308 463.144 536.62 462.697L546.597 469.045C546.361 469.372 546.16 469.666 545.995 469.925C545.822 470.152 545.647 470.405 545.469 470.685C544.16 472.742 543.685 474.46 544.042 475.838C544.368 477.224 545.399 478.469 547.137 479.575L595.224 510.171ZM597.115 520.297C598.309 518.42 599.968 517.202 602.091 516.645C604.233 516.1 606.193 516.393 607.971 517.524C609.729 518.642 610.805 520.281 611.199 522.44C611.613 524.611 611.223 526.636 610.028 528.514C608.808 530.431 607.133 531.652 605.003 532.177C602.881 532.735 600.94 532.454 599.183 531.336C597.405 530.205 596.309 528.554 595.895 526.382C595.488 524.243 595.895 522.215 597.115 520.297Z" fill="#2F2F2F"/>
<path d="M524.397 513.108C527.927 508.87 531.881 505.954 536.258 504.362C540.637 502.803 545.143 502.535 549.775 503.559C554.425 504.597 558.896 506.904 563.189 510.48C567.519 514.086 570.605 518.075 572.449 522.445C574.311 526.831 574.863 531.311 574.103 535.885C573.346 540.493 571.203 544.916 567.672 549.154C564.142 553.392 560.187 556.291 555.807 557.85C551.43 559.442 546.917 559.719 542.267 558.681C537.635 557.657 533.155 555.342 528.825 551.736C524.532 548.16 521.455 544.18 519.593 539.794C517.749 535.423 517.205 530.934 517.962 526.327C518.722 521.753 520.867 517.346 524.397 513.108ZM533.356 520.663C531.75 522.591 530.955 524.655 530.97 526.856C531.004 529.072 531.703 531.302 533.068 533.548C534.417 535.812 536.311 537.959 538.748 539.99C541.186 542.02 543.64 543.494 546.11 544.412C548.566 545.348 550.886 545.633 553.072 545.265C555.257 544.898 557.153 543.75 558.759 541.822C560.38 539.876 561.189 537.776 561.185 535.524C561.167 533.29 560.483 531.041 559.133 528.777C557.769 526.532 555.868 524.394 553.43 522.363C550.993 520.333 548.546 518.85 546.091 517.914C543.62 516.996 541.285 516.729 539.084 517.115C536.886 517.534 534.977 518.716 533.356 520.663Z" fill="#2F2F2F"/>
<path d="M517.953 565.468L498.036 541.019L509.765 531.465L544.215 573.755L533.037 582.86L526.959 575.399L526.463 575.803C527.531 579.025 527.546 582.249 526.51 585.475C525.489 588.719 523.409 591.62 520.27 594.177C517.333 596.569 514.249 598.012 511.018 598.507C507.788 599.001 504.595 598.549 501.439 597.15C498.299 595.769 495.391 593.436 492.714 590.15L470.779 563.223L482.508 553.669L502.738 578.503C504.828 581.106 507.134 582.587 509.655 582.945C512.191 583.322 514.634 582.554 516.983 580.64C518.562 579.354 519.68 577.878 520.338 576.212C520.978 574.561 521.107 572.807 520.724 570.951C520.338 569.128 519.415 567.3 517.953 565.468Z" fill="#2F2F2F"/>
<path d="M432.909 624.695L445.094 618.056C445.81 619.028 446.722 619.778 447.831 620.305C448.95 620.853 450.208 621.114 451.607 621.087C452.994 621.091 454.482 620.723 456.068 619.981C458.192 618.988 459.772 617.7 460.809 616.117C461.856 614.556 462.033 613.036 461.342 611.556C460.79 610.377 459.852 609.6 458.527 609.226C457.203 608.853 455.278 608.956 452.752 609.535L442.967 611.916C437.702 613.176 433.379 613.263 429.997 612.179C426.615 611.095 424.092 608.773 422.427 605.213C420.913 601.975 420.538 598.687 421.304 595.349C422.048 592.022 423.75 588.9 426.411 585.983C429.06 583.098 432.529 580.652 436.818 578.647C443.359 575.588 449.207 574.513 454.362 575.421C459.506 576.361 463.514 579.035 466.385 583.442L453.237 590.452C451.897 588.649 450.199 587.587 448.142 587.269C446.095 586.971 443.849 587.394 441.404 588.537C439.002 589.661 437.288 591.024 436.261 592.628C435.222 594.264 435.038 595.826 435.709 597.316C436.312 598.55 437.314 599.323 438.714 599.635C440.125 599.969 442.002 599.848 444.347 599.275L453.701 596.978C458.978 595.687 463.352 595.68 466.824 596.957C470.275 598.245 472.863 600.733 474.588 604.421C476.072 607.595 476.493 610.73 475.85 613.827C475.186 616.934 473.579 619.842 471.03 622.55C468.459 625.268 465.061 627.614 460.836 629.59C454.596 632.508 449.068 633.486 444.253 632.523C439.417 631.57 435.636 628.96 432.909 624.695Z" fill="#2F2F2F"/>
<path d="M390.216 619.491L398.063 649.813L383.418 653.604L369.751 600.798L383.812 597.159L386.295 606.751L386.845 606.608C387.236 603.206 388.575 600.206 390.862 597.609C393.125 595.018 396.24 593.209 400.205 592.183C403.734 591.269 407.048 591.268 410.144 592.178C413.241 593.088 415.928 594.826 418.206 597.391C420.461 599.962 422.134 603.307 423.225 607.427L431.926 641.049L417.281 644.84L409.255 613.83C408.426 610.719 406.952 608.472 404.833 607.088C402.714 605.705 400.268 605.372 397.495 606.089C395.73 606.546 394.184 607.374 392.856 608.574C391.534 609.796 390.61 611.331 390.086 613.179C389.539 615.032 389.582 617.137 390.216 619.491Z" fill="#2F2F2F"/>
<path d="M357.153 632.409L355.329 600.928L370.431 600.053L373.587 654.507L359.193 655.341L358.636 645.733L357.998 645.77C356.976 649.007 355.101 651.63 352.371 653.637C349.643 655.669 346.259 656.802 342.217 657.036C338.436 657.255 335.091 656.619 332.182 655.127C329.274 653.636 326.951 651.399 325.213 648.417C323.476 645.459 322.486 641.864 322.24 637.633L320.231 602.961L335.334 602.086L337.187 634.064C337.356 637.398 338.358 639.948 340.191 641.715C342.026 643.506 344.456 644.314 347.481 644.139C349.514 644.021 351.285 643.48 352.794 642.515C354.28 641.551 355.411 640.205 356.188 638.476C356.943 636.773 357.265 634.75 357.153 632.409Z" fill="#2F2F2F"/>
<path d="M300.875 598.766C304.978 599.339 308.547 600.913 311.582 603.488C314.59 606.083 316.78 609.58 318.15 613.978C319.493 618.396 319.744 623.619 318.903 629.644C318.039 635.834 316.324 640.842 313.759 644.667C311.19 648.516 308.11 651.229 304.519 652.807C300.902 654.406 297.112 654.929 293.149 654.376C290.125 653.954 287.676 653.086 285.804 651.773C283.904 650.48 282.44 648.985 281.41 647.287C280.353 645.61 279.598 643.999 279.144 642.453L278.687 642.389L274.907 669.471L259.96 667.384L270.013 595.355L284.785 597.417L283.577 606.069L284.21 606.157C285.123 604.755 286.327 603.405 287.823 602.108C289.292 600.831 291.114 599.854 293.288 599.178C295.438 598.498 297.967 598.361 300.875 598.766ZM294.463 610.027C292.048 609.689 289.916 610.061 288.068 611.142C286.193 612.243 284.644 613.927 283.419 616.194C282.171 618.458 281.322 621.196 280.874 624.408C280.426 627.621 280.482 630.473 281.042 632.965C281.603 635.458 282.637 637.467 284.145 638.992C285.653 640.517 287.615 641.448 290.03 641.785C292.492 642.129 294.66 641.75 296.535 640.65C298.41 639.549 299.946 637.875 301.144 635.628C302.342 633.381 303.159 630.698 303.594 627.579C304.033 624.438 303.987 621.599 303.456 619.062C302.899 616.547 301.883 614.492 300.408 612.9C298.906 611.328 296.925 610.37 294.463 610.027Z" fill="#2F2F2F"/>
<path d="M248.417 585.925C253.727 587.737 257.931 590.373 261.028 593.831C264.096 597.304 265.983 601.376 266.691 606.045C267.391 610.737 266.812 615.805 264.954 621.249C263.142 626.559 260.52 630.868 257.09 634.175C253.66 637.482 249.692 639.617 245.186 640.581C240.657 641.537 235.861 641.15 230.797 639.422C227.392 638.26 224.409 636.629 221.848 634.529C219.258 632.445 217.236 629.941 215.782 627.018C214.305 624.088 213.513 620.766 213.405 617.051C213.289 613.36 213.98 609.318 215.479 604.927L216.821 600.995L260.41 615.871L257.382 624.744L227.27 614.467C226.566 616.528 226.391 618.507 226.744 620.403C227.098 622.3 227.917 623.968 229.202 625.407C230.457 626.861 232.126 627.943 234.21 628.655C236.383 629.396 238.482 629.55 240.506 629.115C242.501 628.695 244.255 627.806 245.77 626.446C247.277 625.109 248.389 623.425 249.107 621.394L251.986 612.959C252.858 610.404 253.141 608.037 252.834 605.856C252.506 603.668 251.64 601.771 250.236 600.166C248.832 598.562 246.932 597.35 244.535 596.532C242.944 595.989 241.411 595.716 239.936 595.713C238.461 595.71 237.101 595.996 235.854 596.571C234.607 597.146 233.515 597.999 232.579 599.131L219.635 593.738C221.393 590.785 223.719 588.477 226.614 586.814C229.478 585.165 232.771 584.237 236.493 584.032C240.186 583.841 244.16 584.472 248.417 585.925Z" fill="#2F2F2F"/>
<path d="M179.987 636.156L212.254 570.979L225.812 577.691L193.545 642.868L179.987 636.156Z" fill="#2F2F2F"/>
<path d="M191.98 557.035C196.567 560.097 199.884 563.721 201.93 567.905C203.943 572.095 204.685 576.547 204.157 581.261C203.616 585.995 201.794 590.686 198.691 595.332C195.563 600.018 191.923 603.509 187.772 605.804C183.607 608.12 179.211 609.141 174.582 608.869C169.92 608.603 165.295 606.939 160.708 603.876C156.12 600.813 152.82 597.187 150.807 592.996C148.761 588.812 148.009 584.353 148.55 579.62C149.079 574.905 150.907 570.205 154.036 565.519C157.138 560.873 160.771 557.392 164.935 555.077C169.087 552.781 173.493 551.766 178.155 552.032C182.784 552.304 187.392 553.972 191.98 557.035ZM185.414 566.741C183.327 565.348 181.19 564.775 179.003 565.024C176.803 565.291 174.659 566.222 172.57 567.816C170.461 569.397 168.526 571.507 166.765 574.146C165.003 576.784 163.797 579.38 163.145 581.934C162.474 584.474 162.436 586.812 163.032 588.946C163.628 591.081 164.97 592.845 167.057 594.238C169.164 595.644 171.337 596.227 173.576 595.985C175.795 595.731 177.959 594.813 180.068 593.232C182.157 591.638 184.082 589.522 185.844 586.883C187.605 584.245 188.822 581.655 189.493 579.115C190.145 576.561 190.163 574.21 189.547 572.063C188.898 569.922 187.521 568.148 185.414 566.741ZM165.969 615.501C167.663 616.632 168.725 618.195 169.157 620.192C169.576 622.208 169.24 624.033 168.149 625.667C167.032 627.341 165.475 628.351 163.479 628.698C161.482 629.044 159.638 628.652 157.944 627.522C156.231 626.378 155.172 624.831 154.766 622.881C154.341 620.917 154.687 619.099 155.804 617.425C156.895 615.791 158.442 614.774 160.445 614.375C162.415 613.982 164.256 614.358 165.969 615.501ZM147.894 603.434C149.588 604.565 150.65 606.128 151.082 608.124C151.501 610.141 151.165 611.966 150.074 613.6C148.957 615.274 147.4 616.284 145.404 616.63C143.407 616.977 141.563 616.585 139.869 615.455C138.156 614.311 137.097 612.764 136.691 610.814C136.266 608.85 136.612 607.032 137.729 605.358C138.82 603.724 140.367 602.707 142.37 602.308C144.34 601.915 146.181 602.291 147.894 603.434Z" fill="#2F2F2F"/>
<path d="M113.23 563.835L120.877 555.429L145.779 578.083L138.132 586.489L113.23 563.835ZM169.137 540.956L129.78 584.219C127.119 587.144 124.344 589.051 121.453 589.942C118.545 590.817 115.654 590.828 112.782 589.975C109.909 589.122 107.203 587.54 104.664 585.23C102.948 583.669 101.5 582.112 100.32 580.559C99.1233 578.99 98.2702 577.782 97.7609 576.934L107.404 570.345C107.714 570.883 108.138 571.508 108.674 572.22C109.193 572.916 109.785 573.567 110.451 574.173C112.097 575.67 113.595 576.328 114.943 576.147C116.276 575.984 117.564 575.219 118.807 573.853L157.973 530.8L169.137 540.956Z" fill="#2F2F2F"/>
<path d="M91.8652 507.64L101.441 500.404L121.438 526.865L111.862 534.102L91.8652 507.64Z" fill="#2F2F2F"/>
<path d="M63.2151 494.883L56.2533 481.452L107.076 455.108C110.817 453.169 114.225 452.336 117.3 452.608C120.374 452.881 123.161 454.117 125.66 456.314C128.149 458.491 130.379 461.482 132.351 465.286C132.59 465.748 132.809 466.195 133.006 466.626C133.234 467.068 133.464 467.536 133.693 468.03L123.194 473.472C123.03 473.104 122.877 472.783 122.736 472.51C122.626 472.247 122.495 471.968 122.342 471.674C121.22 469.509 119.973 468.235 118.602 467.853C117.24 467.439 115.645 467.705 113.817 468.653L63.2151 494.883ZM53.5081 491.435C54.5322 493.41 54.7526 495.456 54.1693 497.572C53.565 499.698 52.3275 501.246 50.4569 502.216C48.6073 503.175 46.65 503.282 44.585 502.54C42.4989 501.808 40.9439 500.454 39.9197 498.478C38.8738 496.46 38.6585 494.399 39.2737 492.293C39.857 490.178 41.0735 488.64 42.9231 487.682C44.7937 486.712 46.7721 486.593 48.8581 487.325C50.9122 488.047 52.4622 489.417 53.5081 491.435Z" fill="#2F2F2F"/>
<path d="M95.8164 431.157C97.6764 436.35 98.1818 441.236 97.3324 445.815C96.4527 450.38 94.3965 454.399 91.1638 457.87C87.9087 461.349 83.6512 464.031 78.3913 465.915C73.0868 467.815 68.0838 468.45 63.3821 467.821C58.6582 467.199 54.5184 465.4 50.9628 462.424C47.3769 459.433 44.654 455.342 42.794 450.149C40.9339 444.956 40.4437 440.077 41.3234 435.512C42.1727 430.932 44.2249 426.903 47.48 423.424C50.7128 419.952 54.9814 417.267 60.2859 415.367C65.5458 413.483 70.5377 412.851 75.2616 413.473C79.9633 414.102 84.107 415.912 87.6929 418.903C91.2485 421.879 93.9564 425.964 95.8164 431.157ZM84.76 435.042C83.9138 432.679 82.5387 430.946 80.6347 429.843C78.7083 428.747 76.4313 428.218 73.8037 428.253C71.1682 428.267 68.3571 428.809 65.3705 429.878C62.384 430.948 59.8683 432.314 57.8235 433.977C55.7706 435.618 54.3479 437.473 53.5551 439.542C52.7623 441.612 52.7891 443.828 53.6353 446.19C54.4894 448.575 55.8877 450.337 57.83 451.477C59.7643 452.595 62.0493 453.147 64.6848 453.134C67.3124 453.098 70.1195 452.545 73.1061 451.475C76.0926 450.405 78.6123 449.05 80.6651 447.41C82.71 445.747 84.1248 443.87 84.9095 441.778C85.664 439.672 85.6142 437.427 84.76 435.042Z" fill="#2F2F2F"/>
<path d="M54.1927 400.994L85.3535 396.156L87.6743 411.105L33.7745 419.473L31.5627 405.226L41.0723 403.75L40.9743 403.118C37.6542 402.412 34.8639 400.797 32.6034 398.273C30.3194 395.752 28.8669 392.492 28.2459 388.491C27.6648 384.748 27.9769 381.358 29.1823 378.32C30.3877 375.282 32.3911 372.754 35.1926 370.738C37.9707 368.726 41.4536 367.395 45.6411 366.744L79.9601 361.416L82.2809 376.365L50.6288 381.279C47.3266 381.768 44.884 383.01 43.301 385.004C41.6946 387.003 41.1239 389.499 41.5888 392.493C41.9011 394.505 42.6099 396.216 43.7152 397.626C44.8169 399.012 46.2654 400.009 48.0607 400.616C49.829 401.204 51.873 401.33 54.1927 400.994Z" fill="#2F2F2F"/>
<path d="M46.0434 294.699L45.5587 308.566C44.3577 308.687 43.2483 309.092 42.2305 309.778C41.1892 310.462 40.3242 311.413 39.6356 312.631C38.9258 313.823 38.4865 315.291 38.3179 317.035C38.0923 319.367 38.3969 321.383 39.2317 323.081C40.0428 324.777 41.2614 325.703 42.8874 325.86C44.1834 325.986 45.3293 325.573 46.325 324.623C47.3207 323.673 48.2114 321.963 48.9972 319.494L51.9268 309.859C53.5212 304.686 55.6455 300.919 58.2997 298.559C60.9539 296.2 64.2368 295.209 68.1485 295.587C71.7067 295.931 74.7276 297.282 77.2111 299.639C79.697 301.972 81.5185 305.026 82.6757 308.801C83.8116 312.55 84.1517 316.781 83.696 321.494C83.001 328.681 80.9509 334.262 77.5458 338.238C74.1195 342.188 69.7789 344.278 64.5241 344.507L65.1786 329.621C67.4133 329.386 69.1912 328.463 70.5122 326.855C71.8097 325.244 72.5882 323.096 72.848 320.409C73.1032 317.77 72.8017 315.6 71.9433 313.9C71.0637 312.174 69.8121 311.22 68.1884 311.039C66.8194 310.931 65.6443 311.4 64.663 312.447C63.6582 313.491 62.8062 315.169 62.1071 317.48L59.3246 326.701C57.7515 331.9 55.5318 335.669 52.6655 338.009C49.8015 340.324 46.3429 341.286 42.2899 340.894C38.8024 340.557 35.8891 339.324 33.55 337.195C31.2131 335.042 29.5277 332.18 28.4937 328.607C27.4619 325.011 27.1704 320.892 27.6193 316.25C28.2824 309.393 30.2534 304.136 33.5324 300.481C36.8136 296.803 40.9839 294.875 46.0434 294.699Z" fill="#2F2F2F"/>
<path d="M72.1097 260.754L42.0067 252.104L46.1844 237.565L98.6087 252.628L94.5977 266.587L85.0753 263.851L84.9184 264.397C87.6502 266.463 89.5534 269.141 90.6281 272.43C91.7093 275.696 91.6844 279.298 90.5534 283.234C89.5465 286.738 87.8643 289.593 85.5066 291.797C83.1489 294.002 80.2867 295.433 76.92 296.091C73.5598 296.727 69.8286 296.468 65.7264 295.314L32.3469 285.723L36.5247 271.183L67.3103 280.029C70.4113 280.895 73.0959 280.768 75.3642 279.646C77.6324 278.524 79.1621 276.587 79.9532 273.833C80.4566 272.081 80.5292 270.329 80.1708 268.575C79.7898 266.816 78.9369 265.24 77.6122 263.85C76.294 262.436 74.4599 261.405 72.1097 260.754Z" fill="#2F2F2F"/>
<path d="M77.5297 226.073L105.58 240.481L98.6676 253.937L50.1487 229.015L56.7362 216.19L65.2965 220.587L65.5886 220.019C63.3184 217.495 62.011 214.548 61.6665 211.177C61.3009 207.796 62.043 204.305 63.8927 200.704C65.6234 197.334 67.8694 194.775 70.6307 193.026C73.392 191.277 76.4985 190.411 79.95 190.428C83.3805 190.433 86.9805 191.404 90.7499 193.34L121.643 209.209L114.731 222.665L86.2386 208.03C83.2801 206.484 80.5743 206.052 78.121 206.735C75.6467 207.406 73.7172 209.09 72.3327 211.786C71.4024 213.597 70.9699 215.397 71.0352 217.187C71.1112 218.956 71.6967 220.614 72.7916 222.162C73.8763 223.677 75.4557 224.981 77.5297 226.073Z" fill="#2F2F2F"/>
<path d="M134.352 195.601C131.782 198.851 128.619 201.134 124.863 202.45C121.102 203.732 116.979 203.852 112.491 202.809C108 201.733 103.369 199.308 98.5959 195.534C93.6932 191.658 90.2409 187.646 88.2391 183.498C86.2187 179.335 85.4359 175.305 85.8906 171.41C86.3413 167.48 87.8075 163.947 90.2889 160.808C92.183 158.412 94.17 156.739 96.2499 155.788C98.3259 154.804 100.357 154.297 102.342 154.267C104.323 154.204 106.095 154.367 107.658 154.758L107.944 154.396L86.4948 137.437L95.8554 125.598L152.905 170.705L143.654 182.404L136.802 176.986L136.405 177.487C137.153 178.984 137.709 180.706 138.071 182.652C138.429 184.566 138.351 186.631 137.835 188.849C137.333 191.048 136.172 193.299 134.352 195.601ZM127.882 184.374C129.394 182.462 130.151 180.435 130.154 178.294C130.153 176.12 129.484 173.931 128.148 171.728C126.826 169.506 124.893 167.389 122.349 165.378C119.805 163.366 117.316 161.972 114.882 161.194C112.449 160.417 110.193 160.293 108.114 160.823C106.035 161.352 104.24 162.573 102.728 164.486C101.186 166.436 100.416 168.498 100.417 170.672C100.418 172.846 101.085 175.018 102.418 177.188C103.75 179.358 105.651 181.42 108.121 183.373C110.609 185.34 113.082 186.737 115.538 187.562C117.99 188.354 120.276 188.516 122.395 188.05C124.511 187.549 126.34 186.324 127.882 184.374Z" fill="#2F2F2F"/>
<path d="M172.302 156.357C168.057 160.025 163.66 162.324 159.111 163.251C154.564 164.145 150.097 163.719 145.709 161.973C141.306 160.209 137.223 157.151 133.462 152.798C129.793 148.553 127.397 144.115 126.274 139.485C125.151 134.855 125.311 130.351 126.754 125.975C128.215 121.583 130.97 117.638 135.018 114.139C137.741 111.786 140.654 110.035 143.759 108.884C146.867 107.701 150.049 107.219 153.306 107.44C156.581 107.644 159.849 108.638 163.109 110.419C166.355 112.183 169.494 114.82 172.528 118.331L175.245 121.475L140.398 151.591L134.268 144.498L158.341 123.693C156.917 122.045 155.297 120.895 153.481 120.242C151.666 119.59 149.813 119.455 147.922 119.837C146.033 120.186 144.256 121.081 142.59 122.521C140.853 124.022 139.661 125.756 139.014 127.724C138.369 129.657 138.252 131.621 138.66 133.614C139.054 135.59 139.946 137.401 141.336 139.046L147.165 145.79C148.929 147.832 150.83 149.271 152.868 150.107C154.923 150.929 156.997 151.138 159.091 150.737C161.184 150.335 163.19 149.307 165.106 147.65C166.378 146.551 167.387 145.366 168.135 144.094C168.882 142.823 169.322 141.504 169.455 140.137C169.588 138.77 169.403 137.397 168.899 136.018L180.089 127.568C181.749 130.575 182.567 133.749 182.542 137.087C182.52 140.392 181.658 143.703 179.956 147.02C178.257 150.303 175.705 153.415 172.302 156.357Z" fill="#2F2F2F"/>
<path d="M162.848 72.2405L203.008 132.874L190.395 141.228L150.236 80.594L162.848 72.2405Z" fill="#2F2F2F"/>
<path d="M226.648 121.621C221.687 124.032 216.884 125.062 212.24 124.713C207.607 124.332 203.39 122.722 199.589 119.884C195.778 117.024 192.652 113.082 190.21 108.056C187.748 102.988 186.575 98.0831 186.693 93.341C186.8 88.5776 188.141 84.2676 190.715 80.411C193.301 76.5228 197.074 73.3734 202.036 70.9628C206.997 68.5523 211.795 67.5374 216.428 67.9184C221.072 68.2677 225.3 69.8722 229.111 72.732C232.911 75.5706 236.043 79.5238 238.505 84.5918C240.947 89.6171 242.114 94.5115 242.007 99.275C241.889 104.017 240.538 108.332 237.952 112.22C235.378 116.077 231.61 119.211 226.648 121.621ZM221.591 111.05C223.848 109.953 225.422 108.399 226.314 106.386C227.194 104.353 227.475 102.032 227.155 99.4236C226.857 96.805 226.014 94.069 224.628 91.2156C223.242 88.3622 221.611 86.0089 219.737 84.1559C217.884 82.2925 215.886 81.0786 213.743 80.5142C211.6 79.9498 209.4 80.216 207.143 81.3126C204.865 82.4196 203.264 84.0002 202.34 86.0544C201.438 88.0982 201.137 90.4295 201.435 93.0481C201.755 95.6565 202.608 98.3873 203.994 101.241C205.38 104.094 207 106.452 208.853 108.316C210.727 110.169 212.746 111.373 214.911 111.927C217.086 112.449 219.313 112.157 221.591 111.05ZM189.345 69.6273C187.514 70.517 185.628 70.6438 183.687 70.0076C181.735 69.3501 180.33 68.1377 179.472 66.3703C178.592 64.5603 178.507 62.7064 179.217 60.8086C179.927 58.9108 181.198 57.5171 183.029 56.6273C184.882 55.7272 186.752 55.595 188.64 56.2306C190.549 56.8558 191.944 58.0734 192.823 59.8834C193.682 61.6508 193.777 63.4995 193.109 65.4296C192.452 67.328 191.198 68.7272 189.345 69.6273ZM208.893 60.1298C207.062 61.0195 205.176 61.1463 203.235 60.5101C201.283 59.8526 199.878 58.6402 199.02 56.8728C198.14 55.0628 198.055 53.2089 198.765 51.3111C199.475 49.4133 200.746 48.0196 202.577 47.1298C204.429 46.2297 206.3 46.0975 208.188 46.7331C210.097 47.3583 211.491 48.5759 212.371 50.3859C213.23 52.1533 213.325 54.002 212.657 55.9321C212 57.8305 210.746 59.2297 208.893 60.1298Z" fill="#2F2F2F"/>
<path d="M260.316 50.4038L263.702 61.2515L231.565 71.2802L228.18 60.4325L260.316 50.4038ZM251.785 110.206L234.362 54.3741C233.184 50.6 232.942 47.2408 233.635 44.2965C234.351 41.3451 235.803 38.8459 237.991 36.7989C240.18 34.752 242.912 33.2172 246.189 32.1946C248.404 31.5034 250.48 31.0417 252.416 30.8095C254.375 30.5701 255.849 30.445 256.837 30.4341L257.646 42.0858C257.025 42.0813 256.271 42.1305 255.386 42.2332C254.523 42.3289 253.662 42.5108 252.803 42.7787C250.679 43.4417 249.354 44.4008 248.828 45.6561C248.295 46.8888 248.304 48.3866 248.854 50.1493L266.192 105.71L251.785 110.206Z" fill="#2F2F2F"/>
<path d="M319.771 60.5304L321.156 72.4531L288.21 76.2797L286.825 64.357L319.771 60.5304Z" fill="#2F2F2F"/>
</g>
<defs>
<clipPath id="clip0_22_51">
<rect width="690" height="690" fill="white"/>
</clipPath>
</defs>
</svg>
